<svg version="1.2" xmlns="http://www.w3.org/2000/svg" viewBox="0 0 702 700" width="702" height="700">
	<style>
		tspan { white-space:pre } 
		.s0 { fill: #303030 } 
		.s1 { fill: #fcfcfc } 
		.s2 { fill: #2b2b2b } 
		.s3 { fill: #2f2f2f } 
		.s4 { fill: #f7f7f7 } 
		.s5 { fill: #f8f8f8 } 
		.s6 { fill: #2e2e2e } 
		.s7 { fill: #fbfbfb } 
		.s8 { fill: #f6f6f6 } 
		.s9 { fill: #333333 } 
		.s10 { fill: #f9f9f9 } 
		.s11 { fill: #f1f1f1 } 
		.s12 { fill: #f2f2f2 } 
		.s13 { fill: #f3f3f3 } 
		.s14 { fill: #383838 } 
		.s15 { fill: #e9e9e9 } 
		.s16 { fill: #353535 } 
		.s17 { fill: #efefef } 
		.s18 { fill: #eaeaea } 
		.s19 { fill: #f4f4f4 } 
		.s20 { fill: #e4e4e4 } 
		.s21 { fill: #d3d3d3 } 
		.s22 { fill: #d7d7d7 } 
		.s23 { fill: #e7e7e7 } 
		.t24 { font-size: 119px;fill: #292828;font-weight: 400;font-family: "Share-TechMono", "Share-TechMono" } 
	</style>
	<path class="s0" d="m433 195c5.25 0.45 8.03 2.12 12.13 5.38q0.82 0.65 1.68 1.33c16.64 13.38 16.64 13.38 22.19 21.29 0.04 3.15-0.62 4.48-2.47 7-4.94 4.87-10.16 9.2-15.66 13.44q-1.08 0.84-2.2 1.7c-3.53 2.67-7.03 5.14-10.89 7.28-7.84 4.42-11.84 7.89-14.53 16.71q-0.9 3.34-1.7 6.71c-1.7 6.68-4.14 11.52-8.74 16.66q-0.69 0.8-1.4 1.63-1.69 1.94-3.41 3.87 1.42 0.76 2.89 1.54 1.9 1.04 3.8 2.08 0.93 0.5 1.89 1.01c8 4.44 11.76 10.71 14.42 19.37 0.52 2.69 0.8 5.25 1 8 11.88-7.52 23.33-16.06 33.66-25.61 3.37-3 5.78-4.51 10.34-4.39 2.87 1.16 5.36 2.8 7.94 4.5q1.14 0.73 2.31 1.48 3.89 2.49 7.75 5.02 3 1.93 6.01 3.86c24.61 15.87 24.61 15.87 28.93 22.08q0.98 1.4 1.99 2.84c1.52 2.36 2.96 4.72 4.36 7.16q0.58 1 1.18 2.04 1.13 1.98 2.21 3.98c2.47 4.36 4.7 6.18 9.32 8.04 1 1 1 1 1.25 3.38-0.3 3.15-0.88 3.64-3.25 5.62-1.87 0.95-1.87 0.95-3.87 1.69-0.99 0.37-0.99 0.37-2 0.76-2.55 0.66-4.5 0.87-7.13 0.55-1.82-1.41-1.82-1.41-3.56-3.5q-1.03-1.21-2.09-2.47c-1.76-2.27-3.43-4.55-5.08-6.91-5.88-8.37-10.95-14.25-20.24-19-2.47-1.36-4.79-2.91-7.14-4.47q-2.76-1.76-5.51-3.52-1.29-0.89-2.61-1.8c-2.64-1.62-4.73-2.71-7.77-3.33-4.21 1.16-7.43 3.54-11 6q-2.61 1.6-5.25 3.14-3.71 2.21-7.38 4.47-2.84 1.73-5.69 3.46c-6.39 3.88-6.39 3.88-12.68 7.93-0.42 2.91-0.42 2.91-0.29 6.32q0.01 1.88 0.03 3.81c0.03 1.98 0.03 1.98 0.07 4q0.03 2 0.04 4.01 0.06 4.93 0.15 9.86 1.09-0.04 2.2-0.09 10.35-0.39 20.7-0.58 5.32-0.1 10.63-0.31c24.8-1.01 24.8-1.01 30.63 3.66 2.96 3.1 4.86 6.54 6.84 10.32q1.62 2.15 3.35 4.21 1.36 1.79 2.71 3.6 0.73 0.98 1.48 1.98c15.58 21.13 15.58 21.13 15.59 29.81q0 1.69 0.01 3.43-0.01 1.77-0.01 3.6 0 1.73 0.01 3.52c-0.01 6.06-0.26 11.86-1.14 17.85q-0.19 2.43-0.25 4.88-0.04 1.1-0.08 2.24 0.16 0.92 0.33 1.88 1.48 0.99 3 2c-0.75 6.75-0.75 6.75-3 9-6.24-0.31-11.42-1.42-16-6-0.98-4.46-1.04-8.76-1.08-13.32-0.29-17.99-3.67-28.76-14.92-42.68q-2.44-3.29-4.81-6.62-0.94-1.22-1.9-2.48c-1.29-1.9-1.29-1.9-1.29-3.9-17.82-0.99-35.64-1.98-54-3-2.37 21.1-2.37 21.1 4.13 28.25q2.89 1.94 5.87 3.75c1.66 1.27 3.28 2.59 4.9 3.91 4.33 3.53 8.79 6.88 13.31 10.18 14.04 10.26 14.04 10.26 18.79 16.91q0.62 0.83 1.26 1.69 2.15 2.91 4.24 5.87 0.68 0.94 1.39 1.9 0.62 0.91 1.27 1.86c0.57 0.81 0.57 0.81 1.15 1.63 2.02 5.96-1.49 12.7-3.66 18.25q-0.51 1.31-1.02 2.66-1.62 4.2-3.26 8.39-1.58 4.11-3.17 8.23-1.05 2.72-2.11 5.44-2.61 6.7-5.02 13.48-0.46 1.28-0.93 2.61-0.86 2.42-1.69 4.85c-2.41 6.77-6.16 11.29-11.45 16.14q-2.44 2.5-4.88 5c-5.87 5.9-5.87 5.9-10.18 6.25-2.94-0.25-2.94-0.25-4.94-2.25-0.82-7.17 1.41-12.28 4.31-18.75q1.39-3.2 2.76-6.39c0.72-1.68 0.72-1.68 1.46-3.38 3-7.1 5.75-14.31 8.55-21.49 2.01-5.16 4.03-10.31 6.21-15.4q0.5-1.18 1.01-2.39 0.92-2.12 1.86-4.23c1.07-2.48 1.88-4.42 1.67-7.15-7.57-16.63-24.11-28.8-38.83-38.82q-1.48-0.49-3-1-0.37 1.13-0.76 2.29c-3.67 8.01-14.49 12.54-22.24 15.71-3.97 1.2-7.94 2.14-12 3q-0.16 1.06-0.32 2.16-0.73 4.83-1.49 9.65c-0.25 1.68-0.25 1.68-0.5 3.39q-0.26 1.61-0.52 3.26-0.23 1.47-0.46 3c-0.77 2.77-1.43 3.83-3.71 5.54-3.5 1.17-6.31 1.13-10 1.12-1.86 0.01-1.86 0.01-3.75 0.01-3.25-0.13-3.25-0.13-6.25-1.13-2.44-5.51-3.88-11.13-5.19-17-0.26-1.16-0.26-1.16-0.54-2.35q-0.64-2.82-1.27-5.65c-3.96-0.33-7.92-0.66-12-1q-0.19 1.71-0.38 3.48c-0.55 4.39-1.48 8.61-2.56 12.89q-0.25 1.07-0.51 2.16c-1.31 5.23-1.31 5.23-3.55 7.47-2.5 0.2-4.87 0.28-7.38 0.25q-1 0.01-2.03 0.02c-3.74-0.01-6.46-0.2-9.59-2.27-0.81-1.77-0.81-1.77-1.23-3.89q-0.24-1.15-0.5-2.34-0.22-1.21-0.46-2.46-0.24-1.18-0.5-2.39c-0.94-4.62-1.69-9.25-2.31-13.92q-1.73 0.04-3.51 0.07c-10.9-0.01-24.33-2.1-32.43-9.95-1.43-1.64-2.76-3.37-4.06-5.12-4.16 1.39-6.75 3.32-9.94 6.31-2.62 2.45-5.21 4.81-8.02 7.05-3.42 2.82-6.04 6.12-8.73 9.64q-0.7 0.9-1.43 1.83-1.98 2.56-3.88 5.17c-0.91 1.24-0.91 1.24-1.83 2.5-2.47 5.29-1.04 10.89 0.33 16.34q0.24 0.95 0.48 1.93 0.78 3.09 1.58 6.17 0.55 2.14 1.1 4.29c2.23 8.72 4.55 17.42 7.03 26.08q0.39 1.39 0.79 2.81c1.69 5.77 3.89 11.01 6.64 16.36 1.05 3 0.89 4.53-0.12 7.52-2.31 2.38-2.31 2.38-5 4-6.02 0-11.9-6.39-16.19-10.19q-0.77-0.64-1.57-1.3c-6.71-5.97-7.62-14.62-9.18-23.07-2.81-14.49-6.47-28.31-11.51-42.19-3.35-9.57-3.35-9.57-1.55-14.25 1.7-2.95 3.62-5.69 5.62-8.44q0.76-1.08 1.55-2.19c5.25-7.32 11.3-13.2 18.45-18.62 5.44-4.19 10.79-8.46 15.94-12.99 2.21-1.94 4.32-3.69 6.88-5.15 2.26-1.33 3.2-2.38 4.56-4.61 0.26-2 0.26-2 0-4.12-0.1-1.17-0.1-1.17-0.2-2.37q-0.56-4.6-1.39-9.16c-0.54-3.11-0.97-6.23-1.41-9.35q-8.24 0.57-16.49 1.17-2.79 0.2-5.59 0.4-7.86 0.54-15.71 1.23-2.85 0.25-5.71 0.46c-5.01 0.59-7.83 1.51-11.25 5.31q-1.68 2.24-3.25 4.55-0.87 1.23-1.77 2.49-1.78 2.51-3.53 5.04c-1.53 2.11-3.12 4.04-4.86 5.97-8.44 9.91-9.76 20.76-10.66 33.38-0.87 9.87-0.87 9.87-4.58 13.06-4.83 2.33-9.21 3.49-14.6 2.94-2.18-3.28-2.54-4.2-2-8 0.99-1.12 0.99-1.12 1.99-2.26 2.45-3.34 2.52-5.12 2.55-9.22q0.03-1.86 0.07-3.78c0.01-1.94 0.01-1.94 0.01-3.93 0.24-22.84 0.24-22.84 6.57-31.37q0.6-0.83 1.22-1.68 1.77-2.39 3.59-4.76 0.87-1.15 1.76-2.34 2.59-3.35 5.24-6.66 1.34-1.71 2.67-3.42c13.49-17.3 13.49-17.3 17.33-18.58q2.08-0.16 4.17-0.19c1.26-0.03 1.26-0.03 2.54-0.05 1.36-0.02 1.36-0.02 2.75-0.04q1.41-0.03 2.85-0.06 4.53-0.08 9.06-0.16c17.84-0.27 17.84-0.27 35.63-1.5 1.56-13 1.56-13-2.41-24.88-3.88-3.18-8.46-5.01-13.06-6.95-4.55-2.1-8.66-4.92-12.84-7.67q-2.37-1.52-4.74-3.03c-1-0.64-1-0.64-2.02-1.3-0.96-0.58-0.96-0.58-1.93-1.17q-0.9-0.65-1.82-1.32c-3.44-1.07-5.96 0.56-9.03 2.05-1 0.47-1 0.47-2.01 0.95q-2.1 1-4.19 2.03-3.15 1.52-6.33 2.98c-8.74 4.15-14.59 8.59-20.62 16.31-2.3 2.6-4.67 5.11-7.06 7.62-0.84 0.94-0.84 0.94-1.7 1.89-3 3.11-4.99 4.88-9.43 4.98-4.23-0.54-8.65-1.33-11.81-4.49 0-3.38 0-3.38 1-7 1.66-0.7 3.33-1.38 5.04-1.95 4.24-2.27 6.45-7.1 8.96-11.05 9.15-13.59 19.59-20.33 33.69-28.38q3.46-1.97 6.92-3.95 1.65-0.94 3.34-1.91 3.89-2.24 7.72-4.58c0.96-0.59 0.96-0.59 1.95-1.18q2.43-1.47 4.84-2.97c2.54-1.03 2.54-1.03 4.55-0.53 2.66 2 5.02 4.2 7.43 6.5 8.47 7.95 17.53 15.1 27.56 21 1.64-1.64 1.48-3.75 1.81-6 1.81-10.32 6.32-18.68 14.12-25.7 2.85-1.79 5.82-2.48 9.07-3.3q-1.05-1.11-2.13-2.25c-6.57-7.43-10.02-14.24-12.87-23.75-2.08-7.27-2.08-7.27-6.31-13.35-2.56-1.33-2.56-1.33-5.37-2.29-4.62-1.89-8.32-4.72-12.32-7.67q-1.16-0.85-2.35-1.72c-21.03-15.48-21.03-15.48-22.34-20.72 1.06-5.02 4.15-7.67 7.69-11.25q1.1-1.17 2.23-2.38c4.56-4.76 9.36-9.1 14.52-13.18 0.8-0.65 0.8-0.65 1.61-1.31 3.49-2.68 6.26-3.76 10.64-4.13-0.54 7.18-3.53 12.64-6.76 18.97-2.37 4.77-3.84 8.7-4.24 14.03 8.45 4.33 16.95 8.51 25.62 12.37 1.12 0.5 1.12 0.5 2.26 1.01 1.07 0.48 1.07 0.48 2.16 0.96q1.01 0.45 2.04 0.91c2.12 0.9 2.12 0.9 5.29 1.38 2.63 1.37 2.63 1.37 3.43 3.22 0.65 2.56 1.13 5.11 1.57 7.71 1.5 7.4 3.39 14.08 6.69 20.88 0.5 1.01 0.5 1.01 1 2.05 1.56 3.09 3.23 6 5.19 8.86 1.75 2.65 1.75 2.65 1.75 4.65 3.63-0.66 7.26-1.32 11-2q-0.05-1.71-0.11-3.47-0.04-2.3-0.08-4.59-0.04-1.13-0.07-2.28c-0.07-5.32 0.74-8.95 3.26-13.66 2.19-1.5 2.19-1.5 5-3 3.48-2.84 6.82-5.82 10-9 7.38-1.03 16.22-2.2 22.75 2.06 3.03 2.38 5.65 5.1 8.25 7.94q1.36 1.25 2.77 2.54c2.4 2.65 2.89 3.66 3.04 7.15q0.07 1.28 0.14 2.59c0.08 4.25 0.11 8.48 0.05 12.72 6.93 0.5 6.93 0.5 14 1 6.96-13.3 13.13-25.81 14.25-41.04 1.02-4.03 2.2-4.8 5.75-6.96 3.57-1.71 7.21-3.24 10.87-4.75 9.34-3.95 18.31-8.26 27.13-13.25-1.28-5.17-3.14-9.48-5.88-14.06q-0.5-0.88-1.02-1.78c-1.68-2.87-3.43-5.63-5.36-8.34-1.74-2.82-1.74-2.82-1.74-6.82z"/>
	<path class="s1" d="m344.27 302.87q3.89 0 7.79-0.01c47.08-0.02 47.08-0.02 59.84 9.57 6.61 6.75 7.54 17.05 7.77 26.08q0.05 1.42 0.1 2.88c0.47 15.9 0.49 31.83 0.53 47.74q0.02 7.23 0.08 14.47 0.04 5.63 0.04 11.26 0.01 2.67 0.03 5.33c0.18 17.62 0.18 17.62-4.45 24.81q-0.86 1.42-1.75 2.87c-4.88 4.62-11.81 5.63-18.27 6.48-1.1 0.16-1.1 0.16-2.23 0.32q-2.32 0.32-4.65 0.64-3.5 0.47-6.99 0.97-2.28 0.32-4.56 0.63c-1.02 0.15-1.02 0.15-2.06 0.29-10.44 1.4-20.84 1.97-31.38 2.04q-1.76 0.01-3.58 0.02-3.72 0.02-7.44 0.04-3.79 0.01-7.57 0.06-5.52 0.06-11.03 0.07-1.67 0.02-3.39 0.05c-10.23-0.03-18.71-3.27-26.1-10.48-9.33-11.97-9.15-29.31-9.2-43.76q-0.01-0.99-0.01-2.01-0.02-5.29-0.03-10.58-0.01-4.28-0.04-8.56c-0.45-56.18-0.45-56.18 6.9-68.89 3.19-2.95 6.35-4.03 10.44-5.33q1.14-0.37 2.31-0.76 3.31-1.08 6.63-2.11 1.51-0.5 3.07-1.01c12.56-3.85 26.18-3.15 39.2-3.12z"/>
	<path class="s2" d="m361.52 326.9q1.52 0.01 3.1 0.01 1.57 0.01 3.19 0.03 1.61 0 3.26 0.01 3.96 0.02 7.93 0.05c2.24 4.08 2.64 8.05 3.06 12.63q0.13 1.25 0.25 2.55c1.15 12.13 1.76 24.2 1.71 36.39q0 1.36 0 2.76-0.01 3.34-0.02 6.67c-49.97 3.58-49.97 3.58-70 3-2.08-20.01-3.57-39.87-4-60 11.63-1.14 23.24-2.18 34.92-2.66 2.88-0.12 5.66-0.25 8.48-0.85 2.77-0.52 5.3-0.6 8.12-0.59z"/>
	<path class="s3" d="m391 182c1 2.55 1 2.55 1 5-1.94 2.81-1.94 2.81-4 5-4.38-0.59-8.1-1.7-12.19-3.38-19.26-7.52-37.37-7.08-56.81 0.38-2.42 1.29-4.72 2.63-7 4.15-2.69 1.14-4.25 0.68-7-0.15-1.87-1.25-1.87-1.25-3-3-0.09-3.52 0.84-4.82 3.19-7.44 22.19-16.71 63.32-17.05 85.81-0.56z"/>
	<path class="s4" d="m338.27 269.8q1.08-0.01 2.19-0.02 2.28-0.01 4.57-0.02 3.49-0.02 6.99-0.07 2.22-0.01 4.44-0.02 1.04-0.02 2.11-0.04c4.58 0.03 5.53 0.45 9.43 3.37 0 5.28 0 10.56 0 16-20.79 0.49-20.79 0.49-42 1 0-14 0-14 3-19 2.97-1.49 6.01-1.18 9.27-1.2z"/>
	<path class="s5" d="m269 440c1.49 2.97 1.47 4.69 1 8-1.86 2.5-4.14 4.43-6.5 6.44q-0.96 0.85-1.95 1.73-2.76 2.44-5.55 4.83c-8.73 7.61-16.07 14.55-22.14 24.56-1.86 2.44-1.86 2.44-3.89 3.35-2.93 0.14-5.27-0.87-7.97-1.91 4.19-14.05 30.46-47 47-47z"/>
	<path class="s0" d="m375.31 198c2.69 2 2.69 2 3.88 4-0.19 2-0.19 2-1.82 4.31-2.37 1.69-2.37 1.69-4.56 1.69-3.27-1.16-6.39-2.56-9.53-4.06-8.95-3.68-20.9-3.06-29.93 0.05-3.5 1.51-6.83 3.3-10.12 5.22-2.23 0.79-2.23 0.79-4.46-0.01-2.69-1.82-2.69-1.82-3.27-4.45 0.5-2.75 0.5-2.75 3-5.25 16.89-10.66 39.3-10.43 56.81-1.5z"/>
	<path class="s0" d="m385 404c3.67 1.34 6.37 3.27 8.94 6.25 1.93 5.01 1.67 9.08-0.13 14-2.1 3.19-3.44 4.89-6.81 6.75-4.34 0.85-8.21 1.01-12.13-1.21-4.21-3.47-6.53-6.58-7.37-12.04 0.68-5.08 3.03-8.08 6.5-11.75 3.73-2.49 6.68-2.64 11-2z"/>
	<path class="s6" d="m322 406c3.86 2 5.6 3.4 8 7 0.73 4.94 0.52 8.94-1.69 13.44-3.63 4.02-6.33 5.71-11.75 6.06-3.37-0.11-5.35-0.64-8-2.75-4.01-4.31-5.12-7.61-5.02-13.43 0.81-4.06 3.4-6.66 6.46-9.32 3.71-1.85 7.95-1.46 12-1z"/>
	<path class="s5" d="m434 437c3.36 0.62 5.47 1.84 8.19 3.88q1.19 0.88 2.41 1.78 1.24 0.94 2.53 1.9 1.27 0.96 2.58 1.94 3.65 2.74 7.29 5.5 1.57 1.18 3.19 2.39c9.16 7.05 16.25 15.45 21.81 25.61q0 0.99 0 2c-2.87 1.44-4.82 1.37-8 1-2.17-2.06-2.17-2.06-4.19-4.87-6.45-8.41-14.18-14.98-22.56-21.38q-0.82-0.63-1.67-1.27-3.44-2.63-6.92-5.19c-3.29-2.54-4.57-3.97-5.66-8.04 0-3.25 0-3.25 1-5.25z"/>
	<path class="s5" d="m495 392c4.22 1.55 6.48 4.67 9.13 8.13q0.7 0.91 1.44 1.85c4.88 6.42 9.31 13.16 13.34 20.14q1.08 1.87 2.27 3.68c3.67 6.17 3.15 12.03 2.69 19.01q-0.07 1.69-0.14 3.43c-0.44 8.32-0.44 8.32-2.73 11.76q-0.26-1.84-0.52-3.74c-2.09-13.15-6.29-23.13-13.48-34.26q-0.78-1.21-1.58-2.47c-5.84-9.13-5.84-9.13-12.28-17.84-1.14-1.69-1.14-1.69-0.95-4.82 0.81-2.87 0.81-2.87 2.81-4.87z"/>
	<path class="s5" d="m204 397q1.48 0.49 3 1c1.65 6.67 1.65 6.67 0.03 10.01-1.53 2.11-3.15 4.08-4.84 6.05q-1.82 2.24-3.62 4.48-0.9 1.11-1.83 2.25c-9.43 11.94-16.58 24.24-19.74 39.21q-0.49 0-1 0c-1.24-26.84 8.84-41.57 26-61q0.99-0.99 2-2z"/>
	<path class="s5" d="m222 495c3.65 0.25 5.47 0.45 8.06 3.14 9.32 13.72 11.97 36.69 13.94 52.86-2.81 0.25-2.81 0.25-6 0-2.8-2.92-3.76-5.9-4.81-9.75q-0.5-1.83-1.02-3.72c-1.72-6.59-3.36-13.21-4.98-19.83-1.37-5.58-2.86-11.07-4.64-16.54-0.55-2.16-0.55-2.16-0.55-6.16z"/>
	<path class="s7" d="m440.02 388.88q1.32 0 2.68 0.01 1.5 0 3.04 0 1.62 0 3.3 0.01c1.66 0 1.66 0 3.35 0.01q5.34 0.01 10.67 0.03 3.61 0 7.22 0.01 8.86 0.02 17.72 0.05c-0.66 3.55-1.57 6.67-3 10-15.77 0.3-31.29-0.6-47-2q-0.57-3.49-1-7c1-1 1-1 3.02-1.12z"/>
	<path class="s8" d="m479 311c4.86 0.53 8.42 2.85 12.44 5.44 1.04 0.66 1.04 0.66 2.11 1.34 7 4.49 13.78 9.25 20.45 14.22q1.26 0.88 2.57 1.79c3.3 3 5.39 6.42 7.68 10.21q0.67 1.06 1.35 2.16c2.02 3.28 3.61 6.03 4.4 9.84-3.26-2.37-5.89-4.94-8.5-8-4.78-5.53-9.77-8.8-16.18-12.22q-5.88-3.16-11.69-6.41-1.02-0.55-2.06-1.12c-10.9-6.08-10.9-6.08-12.57-11.25-0.12-3.25-0.12-3.25 0-6z"/>
	<path class="s4" d="m261 392c0 2.64 0 5.28 0 8q-9.1 0.86-18.21 1.71-3.09 0.29-6.19 0.58-4.45 0.42-8.9 0.84-1.38 0.13-2.8 0.26c-1.3 0.12-1.3 0.12-2.61 0.24q-1.13 0.11-2.3 0.22c-1.66 0.13-3.33 0.15-4.99 0.15-0.99-3.3-1.98-6.6-3-10 16.38-1.64 32.54-2.27 49-2z"/>
	<path class="s4" d="m225 318c-0.09 3.61-0.58 6.66-2 10-3.29 2.99-7.03 4.84-11 6.81q-1.5 0.8-3.04 1.62-5.83 3.06-11.76 5.93c-4.5 2.2-8.57 4.35-12.45 7.58q-1.22 1.01-2.48 2.06c-2.89 2.55-5.61 5.2-8.27 8q-0.99-0.49-2-1c7.82-13.08 15.89-21.31 29-29q1.3-0.77 2.64-1.56 4.26-2.52 8.55-5 1.37-0.8 2.79-1.63 1.29-0.74 2.62-1.5 1.16-0.67 2.35-1.35c2.05-0.96 2.05-0.96 5.05-0.96z"/>
	<path class="s5" d="m473 309c0.99 4.09 1.45 7.8 1 12-4.29 5.3-10.21 8.55-15.94 12.13q-1.45 0.92-2.96 1.87c-12.68 8-12.68 8-18.1 8-0.31-2.69-0.31-2.69 0-6 3.08-3.45 6.46-6.22 10.19-8.94 6.41-4.72 12.68-9.61 18.93-14.54 1.12-0.88 1.12-0.88 2.27-1.77q1-0.79 2.04-1.61c1.57-1.14 1.57-1.14 2.57-1.14z"/>
	<path class="s8" d="m484 489c-1.34 6.87-3.39 13.09-5.99 19.58q-0.58 1.46-1.18 2.96-1.22 3.08-2.45 6.14-1.88 4.7-3.73 9.41-1.19 3-2.39 5.99-0.55 1.4-1.11 2.84c-3.46 8.51-3.46 8.51-7.15 11.08q-1.97 0-4 0c0.53-5.8 1.72-10.6 3.91-15.98q0.44-1.1 0.89-2.23 0.93-2.32 1.87-4.63 1.41-3.48 2.79-6.97c9.76-24.39 9.76-24.39 14.62-27.53 1.92-0.66 1.92-0.66 3.92-0.66z"/>
	<path class="s5" d="m231 321c3.66 1.59 6.36 3.85 9.38 6.44 5.25 4.46 10.63 8.75 16.07 12.98 2.29 1.78 4.5 3.53 6.55 5.58 0.12 3.62 0.12 3.62 0 7-12.27-3.73-25.58-12.32-35-21 0.07-4.15 0.86-7.44 3-11z"/>
	<path class="s4" d="m410 256c3.34 0.6 5.55 1.62 8 4 1.44 8.24-3.13 19.59-7.52 26.34-2.46 2.94-5.16 5.72-8.48 7.66q-1.48 0-3 0c0.56-5.71 2.17-10.36 4.38-15.63 2.99-7.37 5.16-14.52 6.62-22.37z"/>
	<path class="s9" d="m347.69 208.69q1.3-0.05 2.64-0.09c5.77-0.06 11.11 0.55 15.67 4.4 0.78 2.03 0.78 2.03 1 4-1.06 1.81-1.06 1.81-3 3-3.23-0.27-5.93-0.98-9-2-9.47-0.66-9.47-0.66-18.56 1.56-3.53 1.48-4.89 1.66-8.44 0.44q-0.49-1.97-1-4 1.9-1.48 3.81-2.94 1.06-0.81 2.15-1.65c4.56-3.15 9.4-2.66 14.73-2.72z"/>
	<path class="s10" d="m285 257c2 1 2 1 2.91 3.21q0.46 1.42 0.93 2.89 0.51 1.57 1.03 3.18 0.53 1.65 1.07 3.34c2.6 8.33 2.6 8.33 5.8 16.44 1.38 3.21 1.51 5.49 1.26 8.94-5.28-1.44-8.78-4.7-12-9-1.7-3.57-2.88-7.21-4-11q-0.62-1.85-1.25-3.75c-0.84-3.65-1.24-6.52-0.75-10.25 2.5-2.44 2.5-2.44 5-4z"/>
	<path class="s11" d="m237 231c1.64 0.78 1.64 0.78 3.31 1.58 13.17 6.27 26.42 12.37 39.69 18.42-1.15 2.47-2.05 4.05-4 6-3.62-0.34-6.18-1.48-9.22-3.41q-1.17-0.73-2.37-1.49-1.22-0.79-2.47-1.6-1.26-0.8-2.55-1.63c-5.91-3.81-11.58-7.82-17.14-12.13q-2.56-1.96-5.25-3.74 0-0.99 0-2z"/>
	<path class="s12" d="m460 228c-8.53 6.76-17.26 13.03-26.39 18.94q-2.07 1.38-4.09 2.83c-3.37 2.36-5.23 3.23-9.39 3.23-3.13-1-3.13-1-5.13-4 8.36-4.51 16.75-8.92 25.27-13.12 4.98-2.46 9.81-5.13 14.59-7.95 2.14-0.93 2.14-0.93 5.14 0.07z"/>
	<path class="s4" d="m377 470c2.64 0 5.28 0 8 0q-0.43 3.85-0.88 7.69-0.11 1.07-0.23 2.18c-0.48 4.01-1.15 7.43-2.89 11.13q-1.48-0.49-3-1c-0.9-2.71-1.12-4.24-1.1-7.01q0.01-1.13 0.01-2.3 0.01-1.17 0.03-2.38 0-1.19 0.01-2.41 0.02-2.95 0.05-5.9z"/>
	<path class="s13" d="m368.06 470.94c1.46 0.03 1.46 0.03 2.94 0.06q0.04 4.44 0.06 8.88 0.01 1.25 0.03 2.55 0 1.2 0.01 2.44 0.01 1.11 0.01 2.25c-0.11 1.88-0.11 1.88-1.11 3.88q-0.99 0-2 0c-4.69-12.76-4.69-12.76-4-19 1-1 1-1 4.06-1.06z"/>
	<path class="s0" d="m348.06 222.75q1.59-0.01 3.23-0.02c2.71 0.27 2.71 0.27 4.71 2.27q0 1.97 0 4c-3 1.5-5.79 1.09-9.13 1.06q-1.91-0.01-3.88-0.03c-1.48-0.01-1.48-0.01-2.99-0.03q-0.49-2.46-1-5c3.47-2.32 4.96-2.27 9.06-2.25z"/>
	<path class="s14" d="m344 416c2.06 0.52 4.1 1.03 6.13 1.69 0.92 0.15 0.92 0.15 1.87 0.31q0.99-0.99 2-2 1.48 0 3 0c-0.54 4.56-1.8 7.97-4 12q-1.97 0-4 0c-3.21-3.85-4.53-7.03-5-12z"/>
	<path class="s15" d="m321 472c2.31 0 4.62 0 7 0q0.12 3.91 0.19 7.81c0.04 1.11 0.04 1.11 0.07 2.24 0.08 5.5 0.08 5.5-1.77 7.96-0.74 0.49-0.74 0.49-1.49 0.99-4.59-12.49-4.59-12.49-4-19z"/>
	<path class="s16" d="m294.5 319.13c2.69 0.94 3.96 1.47 5.5 3.87-0.13 2.56-0.13 2.56-1 5-3.22 2.15-4.27 2.38-8 2-2-2-2-2-2.31-4.94 0.31-3.06 0.31-3.06 1.5-5 1.81-1.06 1.81-1.06 4.31-0.93z"/>
	<path class="s6" d="m403 319q0.99 0.99 2 2c-0.58 6.58-0.58 6.58-2 8-2.94 0.19-2.94 0.19-6 0-2-2-2-2-2.13-5.63q0.07-1.66 0.13-3.37c2.76-1.38 4.95-1.19 8-1z"/>
	<path class="s4" d="m333 472q2.95 0 6 0c-0.41 6.76-1.57 12.67-4 19-2-2-2-2-2.19-5.91q0.01-2.36 0.06-4.71 0.02-1.2 0.03-2.44 0.04-2.97 0.1-5.94z"/>
	<path class="s17" d="m249 213c1 3 1 3 0.07 5.19-0.68 1.18-0.68 1.18-1.38 2.37q-0.67 1.18-1.37 2.38c-1.32 2.06-1.32 2.06-3.32 4.06-2.63-0.38-2.63-0.38-5-1 1.37-5.67 5.69-8.48 10-12q0.49-0.49 1-1z"/>
	<path class="s18" d="m316 411q0 2.95 0 6c-2.38 0.63-2.38 0.63-5 1q-0.99-0.99-2-2c0.25-2.56 0.25-2.56 1-5 2.49-1.25 3.41-0.78 6 0z"/>
	<path class="s19" d="m378.63 408.88q1.16 0.06 2.37 0.12 0.49 2.46 1 5c-3 2-3 2-5.19 1.63q-0.89-0.31-1.81-0.63c-0.62-1.87-0.62-1.87-1-4 2-2 2-2 4.63-2.12z"/>
	<path class="s20" d="m451 215q2.01 1.43 4 2.88c1.11 0.8 1.11 0.8 2.25 1.61q0.86 0.74 1.75 1.51 0 0.99 0 2c-2.31 0.31-2.31 0.31-5 0-2.24-2.86-3-4.34-3-8z"/>
	<path class="s21" d="m522 453c0.63 1.81 0.63 1.81 1 4q-0.99 1.48-2 3-0.49-2.95-1-6 0.99-0.49 2-1z"/>
	<path class="s22" d="m373 422q1.97 0.49 4 1 0 1.48 0 3-1.97-0.99-4-2 0-0.99 0-2z"/>
	<path class="s23" d="m310 424q1.97 0.49 4 1 0 0.99 0 2-1.97-0.49-4-1 0-0.99 0-2z"/>
	<text id="TBit SWFL" style="transform: matrix(1,.003,-0.003,1,64.13,68.245)">
		<tspan x="0" y="83.3" class="t24">T</tspan><tspan  y="83.3" class="t24">B</tspan><tspan  y="83.3" class="t24">i</tspan><tspan  y="83.3" class="t24">t</tspan><tspan  y="83.3" class="t24"> </tspan><tspan  y="83.3" class="t24">S</tspan><tspan  y="83.3" class="t24">W</tspan><tspan  y="83.3" class="t24">F</tspan><tspan  y="83.3" class="t24">L</tspan><tspan  y="83.3" class="t24">
</tspan>
	</text>
</svg>