
<!-- Generator: visioncortex VTracer 0.6.4 -->
<svg version="1.1" xmlns="http://www.w3.org/2000/svg" viewBox="0 0 702 700" preserveAspectRatio="xMidYMid meet">
<path d="M0 0 C231.66 0 463.32 0 702 0 C702 231 702 462 702 700 C470.34 700 238.68 700 0 700 C0 469 0 238 0 0 Z " fill="#FEFEFE" transform="translate(0,0)"/>
<path d="M0 0 C5.247 0.454 8.031 2.123 12.125 5.375 C12.681 5.816 13.237 6.257 13.811 6.712 C30.45 20.089 30.45 20.089 36 28 C36.037 31.147 35.379 32.484 33.531 35 C28.589 39.867 23.366 44.205 17.875 48.438 C17.147 49 16.419 49.562 15.669 50.142 C12.145 52.81 8.645 55.277 4.777 57.422 C-3.061 61.836 -7.061 65.311 -9.75 74.125 C-10.354 76.355 -10.912 78.592 -11.452 80.839 C-13.147 87.523 -15.594 92.363 -20.188 97.5 C-20.651 98.036 -21.114 98.572 -21.592 99.125 C-22.718 100.425 -23.858 101.714 -25 103 C-24.047 103.508 -23.095 104.016 -22.113 104.539 C-20.846 105.234 -19.579 105.929 -18.312 106.625 C-17.687 106.956 -17.061 107.288 -16.416 107.629 C-8.415 112.069 -4.657 118.339 -2 127 C-1.478 129.695 -1.203 132.255 -1 135 C10.882 127.475 22.333 118.944 32.663 109.39 C36.032 106.392 38.442 104.88 43 105 C45.87 106.164 48.36 107.797 50.938 109.5 C51.702 109.987 52.467 110.474 53.255 110.975 C55.848 112.633 58.424 114.317 61 116 C63.003 117.289 65.007 118.577 67.012 119.863 C91.615 135.733 91.615 135.733 95.938 141.938 C96.594 142.875 97.25 143.812 97.926 144.777 C99.449 147.144 100.892 149.504 102.293 151.941 C102.682 152.614 103.07 153.286 103.471 153.979 C104.224 155.297 104.961 156.624 105.679 157.961 C108.147 162.324 110.38 164.136 115 166 C116 167 116 167 116.25 169.375 C115.95 172.528 115.372 173.019 113 175 C111.133 175.949 111.133 175.949 109.125 176.688 C108.139 177.065 108.139 177.065 107.133 177.449 C104.576 178.109 102.63 178.321 100 178 C98.184 176.594 98.184 176.594 96.438 174.5 C95.749 173.687 95.061 172.873 94.352 172.035 C92.589 169.76 90.917 167.48 89.273 165.121 C83.392 156.747 78.324 150.87 69.029 146.122 C66.559 144.756 64.244 143.211 61.895 141.648 C60.055 140.473 58.215 139.299 56.375 138.125 C55.517 137.533 54.658 136.941 53.774 136.331 C51.129 134.708 49.044 133.624 46 133 C41.792 134.163 38.567 136.541 35 139 C33.26 140.069 31.504 141.107 29.746 142.145 C27.274 143.609 24.824 145.108 22.372 146.606 C20.476 147.765 18.578 148.92 16.68 150.074 C10.285 153.951 10.285 153.951 4 158 C3.582 160.911 3.582 160.911 3.707 164.32 C3.717 165.577 3.726 166.834 3.736 168.129 C3.774 170.107 3.774 170.107 3.812 172.125 C3.828 173.465 3.841 174.805 3.854 176.145 C3.889 179.43 3.938 182.715 4 186 C4.727 185.971 5.455 185.942 6.204 185.913 C13.101 185.651 19.998 185.453 26.899 185.326 C30.447 185.259 33.99 185.168 37.535 185.019 C62.334 184.009 62.334 184.009 68.159 188.677 C71.118 191.776 73.025 195.217 75 199 C76.082 200.428 77.193 201.836 78.348 203.207 C79.258 204.404 80.163 205.606 81.062 206.812 C81.551 207.466 82.04 208.119 82.544 208.792 C98.123 229.918 98.123 229.918 98.133 238.602 C98.134 239.732 98.135 240.863 98.137 242.027 C98.133 243.215 98.129 244.402 98.125 245.625 C98.129 246.789 98.133 247.953 98.137 249.152 C98.13 255.207 97.877 261.012 97 267 C96.877 268.622 96.785 270.248 96.75 271.875 C96.724 272.615 96.698 273.355 96.672 274.117 C96.78 274.739 96.888 275.36 97 276 C97.99 276.66 98.98 277.32 100 278 C99.25 284.75 99.25 284.75 97 287 C90.761 286.688 85.577 285.577 81 281 C80.019 276.541 79.956 272.235 79.922 267.676 C79.626 249.685 76.248 238.919 65 225 C63.368 222.811 61.78 220.594 60.188 218.375 C59.562 217.558 58.937 216.74 58.293 215.898 C57 214 57 214 57 212 C39.18 211.01 21.36 210.02 3 209 C0.632 230.099 0.632 230.099 7.125 237.25 C9.053 238.547 11.014 239.794 13 241 C14.664 242.268 16.28 243.585 17.9 244.908 C22.233 248.436 26.695 251.791 31.207 255.086 C45.246 265.349 45.246 265.349 50 272 C50.415 272.556 50.831 273.112 51.259 273.686 C52.7 275.626 54.104 277.589 55.5 279.562 C55.959 280.188 56.417 280.814 56.89 281.458 C57.308 282.071 57.726 282.685 58.156 283.316 C58.726 284.128 58.726 284.128 59.307 284.955 C61.327 290.914 57.825 297.655 55.648 303.203 C55.311 304.08 54.974 304.958 54.627 305.862 C53.55 308.66 52.463 311.455 51.375 314.25 C50.315 316.992 49.257 319.734 48.2 322.477 C47.5 324.293 46.797 326.108 46.093 327.922 C44.361 332.395 42.672 336.877 41.069 341.398 C40.762 342.259 40.454 343.119 40.138 344.006 C39.565 345.619 39.001 347.236 38.447 348.857 C36.038 355.633 32.289 360.152 27 365 C25.372 366.664 23.747 368.331 22.125 370 C16.248 375.898 16.248 375.898 11.938 376.25 C9 376 9 376 7 374 C6.181 366.829 8.412 361.723 11.312 355.25 C12.235 353.12 13.154 350.988 14.07 348.855 C14.792 347.184 14.792 347.184 15.528 345.478 C18.533 338.377 21.284 331.174 24.076 323.987 C26.087 318.828 28.109 313.682 30.285 308.59 C30.621 307.801 30.958 307.012 31.304 306.199 C31.912 304.785 32.53 303.375 33.159 301.971 C34.226 299.491 35.043 297.545 34.828 294.82 C27.265 278.195 10.719 266.022 -4 256 C-4.99 255.67 -5.98 255.34 -7 255 C-7.25 255.754 -7.5 256.508 -7.758 257.285 C-11.426 265.303 -22.253 269.832 -30 273 C-33.969 274.201 -37.945 275.144 -42 276 C-42.105 276.711 -42.211 277.423 -42.32 278.156 C-42.804 281.377 -43.308 284.594 -43.812 287.812 C-44.061 289.492 -44.061 289.492 -44.314 291.205 C-44.485 292.278 -44.656 293.351 -44.832 294.457 C-44.984 295.447 -45.136 296.437 -45.292 297.456 C-46.064 300.229 -46.724 301.286 -49 303 C-52.501 304.167 -55.312 304.133 -59 304.125 C-60.856 304.129 -60.856 304.129 -62.75 304.133 C-66 304 -66 304 -69 303 C-71.441 297.49 -72.881 291.867 -74.188 286 C-74.453 284.838 -74.453 284.838 -74.725 283.652 C-75.155 281.769 -75.578 279.885 -76 278 C-79.96 277.67 -83.92 277.34 -88 277 C-88.125 278.147 -88.25 279.295 -88.379 280.477 C-88.929 284.865 -89.856 289.091 -90.938 293.375 C-91.107 294.085 -91.277 294.796 -91.451 295.527 C-92.756 300.756 -92.756 300.756 -95 303 C-97.504 303.199 -99.873 303.278 -102.375 303.25 C-103.048 303.258 -103.721 303.265 -104.414 303.273 C-108.15 303.259 -110.868 303.074 -114 301 C-114.805 299.232 -114.805 299.232 -115.23 297.113 C-115.394 296.339 -115.557 295.565 -115.725 294.768 C-115.877 293.957 -116.03 293.147 -116.188 292.312 C-116.352 291.522 -116.516 290.731 -116.686 289.916 C-117.628 285.296 -118.381 280.673 -119 276 C-120.158 276.024 -121.315 276.049 -122.508 276.074 C-133.415 276.062 -146.841 273.973 -154.938 266.121 C-156.37 264.479 -157.698 262.747 -159 261 C-163.165 262.388 -165.751 264.318 -168.938 267.312 C-171.559 269.76 -174.153 272.122 -176.961 274.355 C-180.384 277.182 -183.002 280.484 -185.688 284 C-186.16 284.603 -186.632 285.207 -187.119 285.828 C-188.441 287.533 -189.727 289.258 -191 291 C-191.907 292.237 -191.907 292.237 -192.832 293.5 C-195.302 298.786 -193.872 304.389 -192.496 309.84 C-192.338 310.476 -192.179 311.111 -192.016 311.766 C-191.499 313.826 -190.969 315.882 -190.438 317.938 C-190.072 319.369 -189.707 320.801 -189.343 322.233 C-187.106 330.955 -184.785 339.654 -182.312 348.312 C-182.052 349.24 -181.792 350.167 -181.523 351.123 C-179.831 356.895 -177.633 362.129 -174.88 367.481 C-173.831 370.484 -173.992 372.008 -175 375 C-177.312 377.375 -177.312 377.375 -180 379 C-186.022 379 -191.904 372.608 -196.188 368.812 C-196.708 368.381 -197.228 367.95 -197.764 367.506 C-204.467 361.539 -205.381 352.889 -206.938 344.438 C-209.749 329.951 -213.412 316.135 -218.446 302.247 C-221.798 292.681 -221.798 292.681 -220 288 C-218.304 285.047 -216.382 282.311 -214.375 279.562 C-213.866 278.837 -213.357 278.112 -212.832 277.365 C-207.584 270.046 -201.532 264.173 -194.375 258.75 C-188.942 254.558 -183.593 250.29 -178.437 245.759 C-176.225 243.821 -174.122 242.07 -171.562 240.609 C-169.301 239.284 -168.356 238.231 -167 236 C-166.742 234 -166.742 234 -166.996 231.883 C-167.098 230.706 -167.098 230.706 -167.203 229.506 C-167.576 226.436 -168.04 223.394 -168.592 220.352 C-169.131 217.244 -169.563 214.124 -170 211 C-175.496 211.383 -180.991 211.774 -186.486 212.172 C-188.35 212.306 -190.215 212.438 -192.08 212.567 C-197.322 212.932 -202.558 213.332 -207.791 213.804 C-209.693 213.973 -211.597 214.12 -213.501 214.262 C-218.515 214.845 -221.326 215.775 -224.75 219.57 C-225.867 221.064 -226.95 222.584 -228 224.125 C-228.583 224.943 -229.166 225.762 -229.767 226.605 C-230.957 228.279 -232.136 229.96 -233.304 231.648 C-234.828 233.762 -236.424 235.686 -238.16 237.625 C-246.603 247.529 -247.919 258.379 -248.817 270.995 C-249.688 280.869 -249.688 280.869 -253.395 284.065 C-258.226 286.395 -262.611 287.553 -268 287 C-270.184 283.724 -270.543 282.799 -270 279 C-269.015 277.882 -269.015 277.882 -268.01 276.741 C-265.561 273.401 -265.491 271.621 -265.461 267.52 C-265.438 266.272 -265.415 265.025 -265.391 263.74 C-265.383 261.796 -265.383 261.796 -265.375 259.812 C-265.144 236.971 -265.144 236.971 -258.812 228.438 C-258.409 227.885 -258.005 227.333 -257.589 226.763 C-256.411 225.162 -255.206 223.58 -254 222 C-253.419 221.229 -252.837 220.458 -252.238 219.664 C-250.517 217.422 -248.76 215.212 -247 213 C-246.11 211.861 -245.22 210.722 -244.332 209.582 C-230.838 192.279 -230.838 192.279 -227 191 C-225.612 190.892 -224.219 190.834 -222.827 190.811 C-221.569 190.785 -221.569 190.785 -220.285 190.76 C-218.926 190.74 -218.926 190.74 -217.539 190.719 C-216.598 190.7 -215.656 190.682 -214.686 190.663 C-211.666 190.604 -208.645 190.552 -205.625 190.5 C-187.789 190.229 -187.789 190.229 -170 189 C-168.438 175.995 -168.438 175.995 -172.41 164.123 C-176.292 160.939 -180.871 159.105 -185.465 157.17 C-190.02 155.067 -194.126 152.247 -198.312 149.5 C-199.89 148.486 -201.469 147.475 -203.051 146.469 C-204.051 145.826 -204.051 145.826 -205.072 145.17 C-206.026 144.591 -206.026 144.591 -207 144 C-207.6 143.563 -208.2 143.125 -208.818 142.675 C-212.259 141.611 -214.782 143.235 -217.855 144.734 C-218.847 145.202 -218.847 145.202 -219.859 145.68 C-221.26 146.348 -222.658 147.024 -224.052 147.708 C-226.15 148.732 -228.265 149.713 -230.385 150.691 C-239.116 154.843 -244.968 159.282 -251 167 C-253.299 169.596 -255.671 172.114 -258.062 174.625 C-258.903 175.559 -258.903 175.559 -259.76 176.512 C-262.757 179.622 -264.753 181.395 -269.188 181.488 C-273.421 180.946 -277.838 180.162 -281 177 C-281 173.625 -281 173.625 -280 170 C-278.339 169.302 -276.669 168.619 -274.961 168.047 C-270.721 165.783 -268.511 160.951 -266 157 C-256.846 143.407 -246.413 136.673 -232.312 128.625 C-230.004 127.306 -227.695 125.987 -225.387 124.668 C-224.286 124.039 -223.186 123.411 -222.052 122.763 C-219.458 121.265 -216.889 119.737 -214.332 118.176 C-213.366 117.594 -213.366 117.594 -212.38 117 C-210.76 116.019 -209.149 115.024 -207.539 114.027 C-205 113 -205 113 -202.988 113.504 C-200.332 115.503 -197.967 117.703 -195.562 120 C-187.085 127.947 -178.032 135.099 -168 141 C-166.361 139.361 -166.522 137.25 -166.188 135 C-164.38 124.68 -159.873 116.322 -152.074 109.297 C-149.216 107.51 -146.248 106.823 -143 106 C-143.701 105.256 -144.403 104.512 -145.125 103.746 C-151.703 96.32 -155.149 89.515 -158 80 C-160.083 72.727 -160.083 72.727 -164.305 66.648 C-166.871 65.318 -166.871 65.318 -169.68 64.355 C-174.299 62.47 -178.004 59.642 -182 56.688 C-182.777 56.12 -183.553 55.552 -184.354 54.967 C-205.378 39.489 -205.378 39.489 -206.688 34.25 C-205.626 29.233 -202.537 26.576 -199 23 C-198.263 22.214 -197.525 21.427 -196.766 20.617 C-192.205 15.863 -187.412 11.52 -182.25 7.438 C-181.454 6.793 -181.454 6.793 -180.642 6.135 C-177.152 3.454 -174.377 2.373 -170 2 C-170.54 9.177 -173.529 14.638 -176.762 20.973 C-179.128 25.744 -180.599 29.673 -181 35 C-172.548 39.33 -164.051 43.511 -155.375 47.375 C-154.258 47.875 -154.258 47.875 -153.118 48.385 C-152.05 48.856 -152.05 48.856 -150.961 49.336 C-150.286 49.638 -149.611 49.94 -148.916 50.251 C-146.804 51.146 -146.804 51.146 -143.625 51.629 C-141 53 -141 53 -140.198 54.846 C-139.547 57.406 -139.071 59.959 -138.625 62.562 C-137.127 69.956 -135.239 76.641 -131.938 83.438 C-131.445 84.455 -131.445 84.455 -130.942 85.492 C-129.385 88.585 -127.714 91.493 -125.754 94.348 C-124 97 -124 97 -124 99 C-120.37 98.34 -116.74 97.68 -113 97 C-113.035 95.854 -113.07 94.708 -113.105 93.527 C-113.134 91.997 -113.161 90.467 -113.188 88.938 C-113.213 88.185 -113.238 87.433 -113.264 86.658 C-113.333 81.337 -112.522 77.711 -110 73 C-107.812 71.5 -107.812 71.5 -105 70 C-101.523 67.158 -98.175 64.175 -95 61 C-87.621 59.973 -78.778 58.801 -72.25 63.059 C-69.218 65.437 -66.598 68.157 -64 71 C-63.086 71.838 -62.172 72.676 -61.23 73.539 C-58.831 76.186 -58.343 77.199 -58.188 80.688 C-58.141 81.545 -58.095 82.402 -58.047 83.285 C-57.974 87.528 -57.939 91.757 -58 96 C-51.07 96.495 -51.07 96.495 -44 97 C-37.039 83.701 -30.866 71.195 -29.75 55.961 C-28.73 51.935 -27.549 51.162 -24 49 C-20.427 47.287 -16.786 45.764 -13.125 44.25 C-3.788 40.301 5.178 35.989 14 31 C12.719 25.83 10.858 21.524 8.125 16.938 C7.786 16.352 7.447 15.766 7.098 15.162 C5.418 12.286 3.67 9.534 1.742 6.816 C0 4 0 4 0 0 Z " fill="#303030" transform="translate(433,173)"/>
<path d="M0 0 C2.597 0.005 5.194 0 7.792 -0.006 C54.869 -0.029 54.869 -0.029 67.631 9.556 C74.24 16.31 75.173 26.61 75.401 35.638 C75.433 36.588 75.466 37.538 75.499 38.517 C75.971 54.424 75.995 70.347 76.028 86.26 C76.039 91.082 76.074 95.904 76.113 100.726 C76.139 104.48 76.148 108.234 76.151 111.989 C76.156 113.768 76.168 115.547 76.186 117.325 C76.36 134.944 76.36 134.944 71.733 142.13 C71.155 143.079 70.578 144.028 69.983 145.005 C65.099 149.618 58.172 150.629 51.717 151.482 C50.612 151.638 50.612 151.638 49.484 151.798 C47.935 152.016 46.385 152.229 44.835 152.438 C42.501 152.753 40.17 153.081 37.838 153.412 C36.319 153.623 34.799 153.834 33.28 154.044 C32.262 154.187 32.262 154.187 31.224 154.332 C20.78 155.732 10.378 156.299 -0.154 156.369 C-1.336 156.377 -2.519 156.385 -3.737 156.393 C-6.217 156.407 -8.697 156.418 -11.177 156.426 C-13.701 156.437 -16.225 156.458 -18.749 156.487 C-22.426 156.53 -26.102 156.546 -29.779 156.556 C-30.898 156.574 -32.017 156.591 -33.17 156.609 C-43.393 156.581 -51.877 153.343 -59.267 146.13 C-68.596 134.161 -68.422 116.82 -68.47 102.369 C-68.473 101.706 -68.476 101.044 -68.479 100.361 C-68.494 96.833 -68.503 93.304 -68.507 89.776 C-68.512 86.925 -68.525 84.074 -68.548 81.222 C-68.993 25.036 -68.993 25.036 -61.646 12.326 C-58.456 9.382 -55.296 8.299 -51.205 7.005 C-50.442 6.753 -49.68 6.501 -48.895 6.241 C-46.691 5.52 -44.48 4.823 -42.267 4.13 C-41.254 3.797 -40.241 3.463 -39.197 3.119 C-26.635 -0.725 -13.013 -0.032 0 0 Z " fill="#FCFCFC" transform="translate(344.26708984375,280.86962890625)"/>
<path d="M0 0 C1.022 0.003 2.043 0.006 3.096 0.01 C4.151 0.018 5.206 0.027 6.293 0.035 C7.367 0.04 8.442 0.044 9.549 0.049 C12.193 0.061 14.837 0.077 17.48 0.098 C19.721 4.182 20.118 8.145 20.543 12.723 C20.625 13.565 20.708 14.408 20.792 15.276 C21.936 27.407 22.548 39.478 22.504 51.664 C22.502 52.577 22.501 53.49 22.499 54.431 C22.494 56.653 22.488 58.875 22.48 61.098 C-27.485 64.679 -27.485 64.679 -47.52 64.098 C-49.603 44.083 -51.088 24.226 -51.52 4.098 C-39.889 2.962 -28.279 1.913 -16.6 1.44 C-13.724 1.315 -10.944 1.188 -8.123 0.588 C-5.351 0.066 -2.818 -0.016 0 0 Z " fill="#2B2B2B" transform="translate(361.51953125,304.90234375)"/>
<path d="M0 0 C0.996 2.547 0.996 2.547 1 5 C-0.938 7.813 -0.938 7.813 -3 10 C-7.383 9.41 -11.101 8.3 -15.188 6.625 C-34.455 -0.903 -52.555 -0.456 -72 7 C-74.417 8.287 -76.722 9.627 -79 11.145 C-81.685 12.293 -83.248 11.831 -86 11 C-87.875 9.75 -87.875 9.75 -89 8 C-89.093 4.481 -88.157 3.175 -85.812 0.562 C-63.621 -16.147 -22.491 -16.491 0 0 Z " fill="#2F2F2F" transform="translate(391,160)"/>
<path d="M0 0 C0.72 -0.006 1.44 -0.011 2.182 -0.017 C3.707 -0.027 5.232 -0.033 6.757 -0.037 C9.086 -0.047 11.414 -0.078 13.742 -0.109 C15.224 -0.116 16.706 -0.121 18.188 -0.125 C18.882 -0.137 19.577 -0.15 20.293 -0.162 C24.875 -0.141 25.83 0.28 29.727 3.203 C29.727 8.483 29.727 13.763 29.727 19.203 C8.937 19.698 8.937 19.698 -12.273 20.203 C-12.273 6.203 -12.273 6.203 -9.273 1.203 C-6.302 -0.283 -3.26 0.02 0 0 Z " fill="#F7F7F7" transform="translate(338.2734375,247.796875)"/>
<path d="M0 0 C1.485 2.969 1.473 4.695 1 8 C-0.86 10.495 -3.138 12.425 -5.5 14.438 C-6.143 15.009 -6.786 15.58 -7.448 16.169 C-9.285 17.796 -11.139 19.401 -13 21 C-21.729 28.607 -29.075 35.545 -35.141 45.559 C-37 48 -37 48 -39.031 48.906 C-41.956 49.046 -44.3 48.043 -47 47 C-42.814 32.948 -16.543 0 0 0 Z " fill="#F8F8F8" transform="translate(269,418)"/>
<path d="M0 0 C2.688 2 2.688 2 3.875 4 C3.688 6 3.688 6 2.062 8.312 C-0.312 10 -0.312 10 -2.5 10 C-5.776 8.835 -8.896 7.439 -12.031 5.938 C-20.987 2.257 -32.931 2.885 -41.965 5.992 C-45.467 7.496 -48.792 9.292 -52.086 11.207 C-54.312 12 -54.312 12 -56.539 11.199 C-59.228 9.381 -59.228 9.381 -59.812 6.75 C-59.312 4 -59.312 4 -56.812 1.5 C-39.919 -9.164 -17.51 -8.932 0 0 Z " fill="#303030" transform="translate(375.3125,176)"/>
<path d="M0 0 C3.665 1.343 6.373 3.272 8.938 6.25 C10.872 11.257 10.609 15.334 8.812 20.25 C6.71 23.44 5.365 25.139 2 27 C-2.337 27.854 -6.212 28.015 -10.133 25.789 C-14.338 22.323 -16.659 19.214 -17.5 13.75 C-16.823 8.674 -14.47 5.673 -11 2 C-7.272 -0.485 -4.318 -0.642 0 0 Z " fill="#303030" transform="translate(385,382)"/>
<path d="M0 0 C3.855 1.997 5.598 3.397 8 7 C8.732 11.944 8.522 15.936 6.312 20.438 C2.678 24.465 -0.016 26.154 -5.438 26.5 C-8.811 26.388 -10.787 25.855 -13.438 23.75 C-17.453 19.441 -18.557 16.144 -18.461 10.324 C-17.655 6.263 -15.055 3.659 -12 1 C-8.292 -0.854 -4.046 -0.459 0 0 Z " fill="#2E2E2E" transform="translate(322,384)"/>
<path d="M0 0 C3.363 0.619 5.466 1.844 8.195 3.879 C8.989 4.466 9.783 5.054 10.6 5.659 C11.433 6.287 12.267 6.915 13.125 7.562 C13.979 8.201 14.834 8.84 15.714 9.499 C18.148 11.325 20.575 13.161 23 15 C24.053 15.789 25.106 16.578 26.191 17.391 C35.348 24.441 42.443 32.841 48 43 C48 43.66 48 44.32 48 45 C45.127 46.436 43.181 46.372 40 46 C37.832 43.945 37.832 43.945 35.812 41.125 C29.363 32.716 21.631 26.153 13.25 19.75 C12.7 19.329 12.149 18.909 11.582 18.475 C9.287 16.726 6.985 14.989 4.656 13.285 C1.372 10.748 0.086 9.323 -1 5.25 C-1 2 -1 2 0 0 Z " fill="#F8F8F8" transform="translate(434,415)"/>
<path d="M0 0 C4.22 1.551 6.476 4.674 9.125 8.125 C9.601 8.738 10.076 9.351 10.567 9.983 C15.449 16.396 19.876 23.136 23.909 30.115 C24.632 31.365 25.388 32.595 26.177 33.804 C29.851 39.965 29.328 45.832 28.875 52.812 C28.826 53.944 28.777 55.075 28.727 56.24 C28.29 64.565 28.29 64.565 26 68 C25.827 66.765 25.655 65.53 25.477 64.258 C23.394 51.113 19.188 41.128 12 30 C11.477 29.186 10.954 28.372 10.415 27.533 C4.58 18.396 4.58 18.396 -1.859 9.688 C-3 8 -3 8 -2.812 4.875 C-2 2 -2 2 0 0 Z " fill="#F8F8F8" transform="translate(495,370)"/>
<path d="M0 0 C0.99 0.33 1.98 0.66 3 1 C4.646 7.667 4.646 7.667 3.025 11.012 C1.5 13.118 -0.117 15.091 -1.812 17.062 C-3.021 18.552 -4.225 20.044 -5.426 21.539 C-6.03 22.283 -6.634 23.027 -7.256 23.794 C-16.693 35.733 -23.836 48.028 -27 63 C-27.33 63 -27.66 63 -28 63 C-29.237 36.158 -19.165 21.43 -2 2 C-1.34 1.34 -0.68 0.68 0 0 Z " fill="#F8F8F8" transform="translate(204,375)"/>
<path d="M0 0 C3.654 0.249 5.469 0.448 8.055 3.137 C17.376 16.857 20.028 39.828 22 56 C19.187 56.25 19.187 56.25 16 56 C13.204 53.08 12.237 50.103 11.188 46.25 C10.852 45.023 10.517 43.796 10.172 42.531 C8.448 35.939 6.81 29.324 5.194 22.704 C3.824 17.124 2.328 11.631 0.553 6.165 C0 4 0 4 0 0 Z " fill="#F8F8F8" transform="translate(222,473)"/>
<path d="M0 0 C0.886 0.002 1.772 0.004 2.685 0.007 C3.686 0.007 4.687 0.007 5.718 0.007 C6.807 0.012 7.895 0.017 9.017 0.023 C10.679 0.025 10.679 0.025 12.375 0.027 C15.932 0.033 19.488 0.045 23.044 0.058 C25.448 0.063 27.853 0.067 30.257 0.071 C36.165 0.082 42.073 0.099 47.982 0.12 C47.319 3.671 46.407 6.795 44.982 10.12 C29.212 10.422 13.687 9.524 -2.018 8.12 C-2.399 5.794 -2.731 3.46 -3.018 1.12 C-2.018 0.12 -2.018 0.12 0 0 Z " fill="#FBFBFB" transform="translate(440.01844787597656,366.87974548339844)"/>
<path d="M0 0 C4.855 0.531 8.422 2.849 12.438 5.438 C13.482 6.101 13.482 6.101 14.548 6.778 C21.545 11.266 28.335 16.034 35 21 C35.847 21.59 36.694 22.181 37.566 22.789 C40.866 25.787 42.955 29.206 45.25 33 C45.696 33.712 46.142 34.423 46.602 35.156 C48.623 38.44 50.206 41.193 51 45 C47.735 42.626 45.106 40.057 42.5 37 C37.723 31.467 32.725 28.204 26.316 24.777 C22.399 22.678 18.508 20.537 14.625 18.375 C13.947 18.003 13.269 17.631 12.571 17.247 C1.671 11.166 1.671 11.166 0 6 C-0.125 2.75 -0.125 2.75 0 0 Z " fill="#F6F6F6" transform="translate(479,289)"/>
<path d="M0 0 C0 2.64 0 5.28 0 8 C-6.069 8.571 -12.138 9.141 -18.207 9.709 C-20.272 9.902 -22.337 10.097 -24.402 10.291 C-27.368 10.57 -30.334 10.848 -33.301 11.125 C-34.226 11.212 -35.151 11.3 -36.104 11.39 C-37.395 11.51 -37.395 11.51 -38.712 11.633 C-39.469 11.704 -40.227 11.775 -41.007 11.848 C-42.667 11.975 -44.335 12 -46 12 C-46.99 8.7 -47.98 5.4 -49 2 C-32.618 0.36 -16.462 -0.273 0 0 Z " fill="#F7F7F7" transform="translate(261,370)"/>
<path d="M0 0 C-0.094 3.611 -0.581 6.664 -2 10 C-5.293 12.993 -9.032 14.843 -13 16.812 C-14.004 17.346 -15.008 17.879 -16.043 18.428 C-19.927 20.475 -23.847 22.44 -27.796 24.359 C-32.302 26.558 -36.371 28.711 -40.25 31.938 C-41.067 32.617 -41.885 33.296 -42.727 33.996 C-45.624 36.55 -48.34 39.2 -51 42 C-51.66 41.67 -52.32 41.34 -53 41 C-45.175 27.917 -37.113 19.695 -24 12 C-23.129 11.484 -22.257 10.967 -21.359 10.436 C-18.517 8.757 -15.667 7.094 -12.812 5.438 C-11.891 4.9 -10.97 4.363 -10.021 3.809 C-9.154 3.314 -8.287 2.819 -7.395 2.309 C-6.62 1.863 -5.845 1.418 -5.046 0.959 C-3 0 -3 0 0 0 Z " fill="#F7F7F7" transform="translate(225,296)"/>
<path d="M0 0 C0.991 4.088 1.45 7.803 1 12 C-3.292 17.304 -9.211 20.548 -14.938 24.125 C-15.914 24.745 -16.89 25.365 -17.896 26.004 C-30.578 34 -30.578 34 -36 34 C-36.312 31.312 -36.312 31.312 -36 28 C-32.919 24.547 -29.543 21.781 -25.812 19.062 C-19.405 14.337 -13.135 9.448 -6.88 4.522 C-5.758 3.643 -5.758 3.643 -4.613 2.746 C-3.941 2.217 -3.268 1.688 -2.575 1.142 C-1 0 -1 0 0 0 Z " fill="#F8F8F8" transform="translate(473,287)"/>
<path d="M0 0 C-1.343 6.868 -3.392 13.094 -5.992 19.582 C-6.379 20.559 -6.767 21.535 -7.166 22.541 C-7.981 24.591 -8.799 26.639 -9.622 28.685 C-10.876 31.816 -12.113 34.953 -13.348 38.092 C-14.145 40.089 -14.943 42.086 -15.742 44.082 C-16.109 45.017 -16.476 45.953 -16.854 46.917 C-20.309 55.432 -20.309 55.432 -24 58 C-25.32 58 -26.64 58 -28 58 C-27.473 52.195 -26.283 47.4 -24.086 42.02 C-23.793 41.285 -23.5 40.55 -23.199 39.793 C-22.58 38.246 -21.956 36.701 -21.328 35.157 C-20.386 32.841 -19.464 30.518 -18.543 28.193 C-8.783 3.799 -8.783 3.799 -3.919 0.656 C-2 0 -2 0 0 0 Z " fill="#F6F6F6" transform="translate(484,467)"/>
<path d="M0 0 C3.657 1.588 6.357 3.853 9.375 6.438 C14.633 10.901 20.006 15.192 25.455 19.42 C27.744 21.201 29.947 22.947 32 25 C32.125 28.625 32.125 28.625 32 32 C19.726 28.271 6.421 19.684 -3 11 C-2.926 6.846 -2.139 3.565 0 0 Z " fill="#F8F8F8" transform="translate(231,299)"/>
<path d="M0 0 C3.343 0.597 5.552 1.617 8 4 C9.441 12.24 4.868 23.587 0.477 30.344 C-1.977 33.283 -4.682 36.055 -8 38 C-8.99 38 -9.98 38 -11 38 C-10.443 32.293 -8.831 27.643 -6.625 22.375 C-3.631 14.995 -1.456 7.849 0 0 Z " fill="#F7F7F7" transform="translate(410,234)"/>
<path d="M0 0 C0.873 -0.029 1.747 -0.058 2.646 -0.088 C8.412 -0.144 13.751 0.459 18.312 4.312 C19.093 6.339 19.093 6.339 19.312 8.312 C18.25 10.125 18.25 10.125 16.312 11.312 C13.081 11.043 10.387 10.337 7.312 9.312 C-2.159 8.649 -2.159 8.649 -11.25 10.875 C-14.78 12.351 -16.139 12.532 -19.688 11.312 C-20.017 9.993 -20.348 8.673 -20.688 7.312 C-19.42 6.328 -18.149 5.35 -16.875 4.375 C-16.167 3.83 -15.46 3.284 -14.73 2.723 C-10.17 -0.425 -5.323 0.058 0 0 Z " fill="#333333" transform="translate(347.6875,186.6875)"/>
<path d="M0 0 C2 1 2 1 2.914 3.206 C3.219 4.161 3.525 5.117 3.84 6.102 C4.181 7.15 4.522 8.198 4.873 9.277 C5.224 10.382 5.576 11.487 5.938 12.625 C8.539 20.954 8.539 20.954 11.742 29.059 C13.115 32.268 13.253 34.546 13 38 C7.72 36.56 4.216 33.295 1 29 C-0.7 25.427 -1.884 21.79 -3 18 C-3.413 16.762 -3.825 15.525 -4.25 14.25 C-5.093 10.596 -5.493 7.73 -5 4 C-2.5 1.562 -2.5 1.562 0 0 Z " fill="#F9F9F9" transform="translate(285,235)"/>
<path d="M0 0 C1.64 0.783 1.64 0.783 3.312 1.582 C16.481 7.854 29.728 13.949 43 20 C41.848 22.468 40.952 24.048 39 26 C35.379 25.656 32.82 24.525 29.777 22.594 C28.997 22.101 28.216 21.609 27.412 21.101 C26.595 20.573 25.779 20.044 24.938 19.5 C24.096 18.963 23.255 18.425 22.389 17.872 C16.483 14.06 10.805 10.051 5.25 5.742 C3.551 4.426 1.788 3.192 0 2 C0 1.34 0 0.68 0 0 Z " fill="#F1F1F1" transform="translate(237,209)"/>
<path d="M0 0 C-8.526 6.757 -17.256 13.027 -26.389 18.938 C-27.775 19.851 -29.131 20.808 -30.48 21.773 C-33.846 24.13 -35.708 25 -39.875 25 C-43 24 -43 24 -45 21 C-36.644 16.486 -28.252 12.077 -19.732 7.881 C-14.755 5.418 -9.921 2.755 -5.137 -0.066 C-3 -1 -3 -1 0 0 Z " fill="#F2F2F2" transform="translate(460,206)"/>
<path d="M0 0 C2.64 0 5.28 0 8 0 C7.717 2.564 7.424 5.126 7.125 7.688 C7.046 8.409 6.968 9.13 6.887 9.873 C6.41 13.885 5.737 17.3 4 21 C3.01 20.67 2.02 20.34 1 20 C0.098 17.293 -0.119 15.762 -0.098 12.988 C-0.094 12.231 -0.091 11.474 -0.088 10.693 C-0.08 9.908 -0.071 9.122 -0.062 8.312 C-0.058 7.515 -0.053 6.718 -0.049 5.896 C-0.037 3.931 -0.019 1.965 0 0 Z " fill="#F7F7F7" transform="translate(377,448)"/>
<path d="M0 0 C1.454 0.031 1.454 0.031 2.938 0.062 C2.964 3.021 2.984 5.979 3 8.938 C3.008 9.779 3.017 10.621 3.025 11.488 C3.029 12.294 3.032 13.1 3.035 13.93 C3.04 14.673 3.046 15.417 3.051 16.183 C2.938 18.062 2.938 18.062 1.938 20.062 C1.277 20.062 0.618 20.062 -0.062 20.062 C-4.756 7.303 -4.756 7.303 -4.062 1.062 C-3.062 0.062 -3.062 0.062 0 0 Z " fill="#F3F3F3" transform="translate(368.0625,448.9375)"/>
<path d="M0 0 C1.063 -0.005 2.127 -0.01 3.223 -0.016 C5.938 0.25 5.938 0.25 7.938 2.25 C7.938 3.57 7.938 4.89 7.938 6.25 C4.934 7.752 2.147 7.343 -1.188 7.312 C-2.469 7.303 -3.75 7.294 -5.07 7.285 C-6.551 7.268 -6.551 7.268 -8.062 7.25 C-8.392 5.6 -8.723 3.95 -9.062 2.25 C-5.589 -0.066 -4.098 -0.02 0 0 Z " fill="#303030" transform="translate(348.0625,200.75)"/>
<path d="M0 0 C2.065 0.516 4.099 1.032 6.125 1.688 C7.053 1.842 7.053 1.842 8 2 C8.66 1.34 9.32 0.68 10 0 C10.99 0 11.98 0 13 0 C12.457 4.565 11.205 7.973 9 12 C7.68 12 6.36 12 5 12 C1.793 8.152 0.473 4.967 0 0 Z " fill="#383838" transform="translate(344,394)"/>
<path d="M0 0 C2.31 0 4.62 0 7 0 C7.081 2.605 7.14 5.207 7.188 7.812 C7.225 8.919 7.225 8.919 7.264 10.049 C7.338 15.55 7.338 15.55 5.488 18.012 C4.752 18.501 4.752 18.501 4 19 C-0.592 6.515 -0.592 6.515 0 0 Z " fill="#E9E9E9" transform="translate(321,450)"/>
<path d="M0 0 C2.689 0.941 3.957 1.475 5.5 3.875 C5.375 6.438 5.375 6.438 4.5 8.875 C1.276 11.024 0.233 11.258 -3.5 10.875 C-5.5 8.875 -5.5 8.875 -5.812 5.938 C-5.5 2.875 -5.5 2.875 -4.312 0.938 C-2.5 -0.125 -2.5 -0.125 0 0 Z " fill="#353535" transform="translate(294.5,297.125)"/>
<path d="M0 0 C0.66 0.66 1.32 1.32 2 2 C1.423 8.577 1.423 8.577 0 10 C-2.938 10.188 -2.938 10.188 -6 10 C-8 8 -8 8 -8.125 4.375 C-8.084 3.261 -8.043 2.147 -8 1 C-5.237 -0.381 -3.053 -0.191 0 0 Z " fill="#2E2E2E" transform="translate(403,297)"/>
<path d="M0 0 C1.98 0 3.96 0 6 0 C5.591 6.762 4.43 12.672 2 19 C0 17 0 17 -0.195 13.086 C-0.182 11.516 -0.158 9.945 -0.125 8.375 C-0.116 7.573 -0.107 6.771 -0.098 5.945 C-0.074 3.963 -0.038 1.982 0 0 Z " fill="#F7F7F7" transform="translate(333,450)"/>
<path d="M0 0 C1 3 1 3 0.074 5.191 C-0.612 6.365 -0.612 6.365 -1.312 7.562 C-1.762 8.348 -2.212 9.133 -2.676 9.941 C-4 12 -4 12 -6 14 C-8.625 13.625 -8.625 13.625 -11 13 C-9.625 7.329 -5.309 4.523 -1 1 C-0.67 0.67 -0.34 0.34 0 0 Z " fill="#EFEFEF" transform="translate(249,191)"/>
<path d="M0 0 C0 1.98 0 3.96 0 6 C-2.375 6.625 -2.375 6.625 -5 7 C-5.66 6.34 -6.32 5.68 -7 5 C-6.75 2.438 -6.75 2.438 -6 0 C-3.509 -1.245 -2.589 -0.777 0 0 Z " fill="#EAEAEA" transform="translate(316,389)"/>
<path d="M0 0 C0.784 0.041 1.567 0.082 2.375 0.125 C2.705 1.775 3.035 3.425 3.375 5.125 C0.375 7.125 0.375 7.125 -1.812 6.75 C-2.411 6.544 -3.009 6.337 -3.625 6.125 C-4.25 4.25 -4.25 4.25 -4.625 2.125 C-2.625 0.125 -2.625 0.125 0 0 Z " fill="#F4F4F4" transform="translate(378.625,386.875)"/>
<path d="M0 0 C1.339 0.95 2.671 1.911 4 2.875 C5.114 3.676 5.114 3.676 6.25 4.492 C6.827 4.99 7.405 5.487 8 6 C8 6.66 8 7.32 8 8 C5.688 8.312 5.688 8.312 3 8 C0.758 5.139 0 3.659 0 0 Z " fill="#E4E4E4" transform="translate(451,193)"/>
<path d="M0 0 C0.625 1.812 0.625 1.812 1 4 C0.34 4.99 -0.32 5.98 -1 7 C-1.33 5.02 -1.66 3.04 -2 1 C-1.34 0.67 -0.68 0.34 0 0 Z " fill="#D3D3D3" transform="translate(522,431)"/>
<path d="M0 0 C1.32 0.33 2.64 0.66 4 1 C4 1.99 4 2.98 4 4 C2.68 3.34 1.36 2.68 0 2 C0 1.34 0 0.68 0 0 Z " fill="#D7D7D7" transform="translate(373,400)"/>
<path d="M0 0 C1.32 0.33 2.64 0.66 4 1 C4 1.66 4 2.32 4 3 C2.68 2.67 1.36 2.34 0 2 C0 1.34 0 0.68 0 0 Z " fill="#E7E7E7" transform="translate(310,402)"/>
</svg>